# xmcd
#
# Track frame offsets: 
#        150
#        17221
#        32288
#        50417
#        64314
#        83413
#        100261
#        116789
#        136133
#        159707
#        182336
#        198725
#        224552
#        239717
#        258696
#        272717
#
# Disc length: 3908 seconds
#
# Revision: 1
# Processed by: cddbd v1.4PL0 Copyright (c) Steve Scherf et al.
# Submitted via: ExactAudioCopy v0.90b4
#
DISCID=ea0f4210
DTITLE=Faith Hill - There You'll Be - The Best Of Faith Hill
DYEAR=2001
DGENRE=Country
TTITLE0=There You´ll Be 
TTITLE1=The Kiss
TTITLE2=Breathe --Tin Tin Out Radio Mix
TTITLE3=The Way You Love Me
TTITLE4=Let Me Let Go
TTITLE5=Piece Of My Heart
TTITLE6=If My Heart Had Wings
TTITLE7=There Will Come A Day
TTITLE8=Love Will Always Win
TTITLE9=My Wild Fontier
TTITLE10=You Give Me Love
TTITLE11=Somewhere Down The Road
TTITLE12=Over The Rainbow
TTITLE13=Breathe
TTITLE14=The Way You Love Me (Love to Infinity Remix)
TTITLE15=If I Should Fall Behind (Bonus Track)
EXTD=
EXTT0=
EXTT1=
EXTT2=
EXTT3=
EXTT4=
EXTT5=
EXTT6=
EXTT7=
EXTT8=
EXTT9=
EXTT10=
EXTT11=
EXTT12=
EXTT13=
EXTT14=
EXTT15=
PLAYORDER=
